<?xml version="1.0" encoding="utf-8"?>
<!-- Generator: Adobe Illustrator 26.0.1, SVG Export Plug-In . SVG Version: 6.00 Build 0)  -->
<svg version="1.1" id="图层_1" xmlns="http://www.w3.org/2000/svg" xmlns:xlink="http://www.w3.org/1999/xlink" x="0px" y="0px"
	 viewBox="0 0 120 37" style="enable-background:new 0 0 120 37;" xml:space="preserve">
<style type="text/css">
	.st0{fill:#FFFFFF;}
	.st1{fill:#EB0029;}
</style>
<g>
	<g>
		<g>
			<rect x="46.312" y="14.641" class="st0" width="2.005" height="13.462"/>
			<rect x="40.957" y="8.938" class="st0" width="16.34" height="2.062"/>
			<rect x="49.933" y="14.641" class="st0" width="2.005" height="13.462"/>
		</g>
		<g>
			<polygon class="st0" points="107.321,28.116 109.344,28.116 109.344,20.009 107.321,17.696 			"/>
			<polygon class="st0" points="117.972,8.938 117.972,23.97 103.664,7.615 103.664,28.116 105.682,28.116 105.682,13.08 120,29.44 
				120,8.938 			"/>
		</g>
		<g>
			<path class="st0" d="M90.565,8.929c-5.143,0-9.324,4.3-9.324,9.589s4.181,9.589,9.324,9.589c5.143,0,9.324-4.3,9.324-9.589
				C99.889,13.234,95.708,8.929,90.565,8.929z M90.565,26.041c-4.032,0-7.315-3.371-7.315-7.523s3.278-7.523,7.315-7.523
				c4.032,0,7.315,3.371,7.315,7.523C97.88,22.665,94.597,26.041,90.565,26.041z"/>
			<path class="st0" d="M90.565,17.139c-0.74,0-1.341,0.618-1.341,1.379s0.601,1.379,1.341,1.379c0.74,0,1.341-0.618,1.341-1.379
				S91.306,17.139,90.565,17.139z"/>
		</g>
		<path class="st0" d="M77.733,14.822c0-3.241-2.547-5.879-5.676-5.879H61.393v19.178h1.991V11.023h8.674
			c2.009,0,3.644,1.704,3.644,3.798c0,2.085-1.612,3.78-3.603,3.803l-7.075-0.005v9.501h1.991V20.7h4.664l3.811,7.416h2.316
			l-3.978-7.708C76.126,19.623,77.733,17.339,77.733,14.822z"/>
	</g>
	<path class="st1" d="M27.172,5.14L0,0l14.3,37l19.921-24.964L27.172,5.14z M26.739,7.406l4.158,4.063l-11.369,2.117L26.739,7.406z
		 M17.058,13.164L5.075,2.944L24.657,6.65L17.058,13.164z M16.2,14.975l-1.951,16.61L3.716,4.318L16.2,14.975z M18.006,15.853
		l12.588-2.345L16.16,31.599L18.006,15.853z"/>
</g>
</svg>
