<svg width="42" height="40" viewBox="0 0 42 40" fill="none" xmlns="http://www.w3.org/2000/svg">
<g clip-path="url(#clip0_10_3508)">
<path d="M10.898 25.2632V16.7183H7.71429V14.1176C8.20408 14.1176 8.69388 14.1176 9.18367 13.9938C9.67347 13.87 10.0408 13.87 10.2857 13.6223C10.6531 13.4985 10.898 13.2508 11.0204 12.8793C11.1429 12.6316 11.2653 12.2601 11.3878 11.7647H14.6939V25.1393H17.8776V27.9876H7.71429V25.1393H10.898V25.2632ZM22.0408 19.8142C21.1837 19.3189 20.5714 18.6997 20.2041 18.0805C19.8367 17.4613 19.7143 16.7183 19.7143 15.8514C19.7143 15.2322 19.8367 14.7368 20.0816 14.1176C20.3265 13.6223 20.6939 13.1269 21.1837 12.7554C21.6735 12.3839 22.2857 12.0124 22.898 11.7647C23.6327 11.517 24.3673 11.3932 25.3469 11.3932C26.3265 11.3932 27.0612 11.517 27.7959 11.7647C28.5306 12.0124 29.0204 12.2601 29.5102 12.6316C30 13.0031 30.3673 13.3746 30.6122 13.87C30.8571 14.3653 30.9796 14.8607 30.9796 15.4799C30.9796 16.2229 30.7347 16.9659 30.3673 17.5851C30 18.2043 29.2653 18.6997 28.4082 19.195V19.3189C29.3878 19.8142 30.1225 20.3096 30.6122 21.0526C31.102 21.7957 31.3469 22.6625 31.3469 23.6533C31.3469 24.3963 31.2245 25.0155 30.9796 25.6347C30.7347 26.2539 30.3673 26.7492 29.7551 27.2446C29.2653 27.7399 28.6531 27.9876 27.7959 28.2353C27.0612 28.483 26.2041 28.6068 25.2245 28.6068C24.2449 28.6068 23.2653 28.483 22.5306 28.2353C21.7959 27.9876 21.0612 27.6161 20.5714 27.2446C20.0816 26.8731 19.7143 26.2539 19.4694 25.7585C19.2245 25.1393 19.102 24.5201 19.102 23.9009C19.102 22.9102 19.3469 22.1672 19.8367 21.548C20.449 20.805 21.0612 20.1858 22.0408 19.8142ZM23.3878 15.8514C23.3878 16.3468 23.5102 16.5944 23.7551 16.8421C24 17.0898 24.2449 17.3375 24.7347 17.5851C24.9796 17.709 25.102 17.8328 25.4694 17.9567C25.7143 18.0805 26.0816 18.2043 26.5714 18.3282C26.8163 17.9567 27.0612 17.5851 27.1837 17.2136C27.3061 16.8421 27.4286 16.4706 27.4286 15.9752C27.4286 15.4799 27.3061 14.9845 26.9388 14.613C26.5714 14.2415 26.0816 14.1176 25.5918 14.1176C24.9796 14.1176 24.6122 14.2415 24.2449 14.613C23.5102 14.9845 23.3878 15.356 23.3878 15.8514ZM22.898 23.1579C22.898 23.9009 23.1429 24.5201 23.6327 25.0155C24.1224 25.5108 24.7347 25.6347 25.4694 25.6347C25.7143 25.6347 25.8367 25.6347 26.2041 25.5108C26.449 25.387 26.6939 25.387 26.9388 25.1393C27.1837 25.0155 27.3061 24.7678 27.4286 24.5201C27.551 24.2724 27.6735 24.0248 27.6735 23.6533C27.6735 23.1579 27.551 22.6625 27.3061 22.4149C27.0612 22.1672 26.6939 21.7957 25.9592 21.4241C25.7143 21.3003 25.4694 21.1765 25.102 21.0526C24.7347 20.9288 24.3673 20.805 24.1225 20.6811C23.8776 20.9288 23.6327 21.3003 23.3878 21.6718C23.0204 22.1672 22.898 22.6625 22.898 23.1579ZM38.8163 18.6997V15.6037H36.2449V18.6997H33.1837V21.3003H36.2449V24.5201H38.8163V21.3003H41.8776V18.6997H38.8163ZM34.898 27.7399C31.9592 33.6842 26.2041 37.2755 19.7143 37.2755C10.2857 37.2755 2.69388 29.4737 2.69388 19.9381C2.69388 10.4025 10.2857 2.60062 19.7143 2.60062C26.2041 2.60062 31.9592 6.31579 34.898 12.1362V12.2601H37.7143L37.5918 12.0124C34.5306 4.70588 27.4286 0 19.5918 0C8.81633 0 0 8.91641 0 19.9381C0 30.9598 8.81633 40 19.5918 40C27.4286 40 34.5306 35.2941 37.5918 27.8638L37.7143 27.6161L34.898 27.7399Z" fill="white" fill-opacity="0.8"/>
</g>
<defs>
<clipPath id="clip0_10_3508">
<rect width="42" height="40" fill="white"/>
</clipPath>
</defs>
</svg>
