<svg width="300" height="76" viewBox="0 0 300 76" fill="none" xmlns="http://www.w3.org/2000/svg">
<g clip-path="url(#clip0_313_65)">
<path d="M85.0556 43.4445C85.0556 43.9723 84.6111 44.4167 84.0556 44.4167H65.6389C66.1111 48.9723 69.5278 53.1389 74.3611 53.1389C77.6667 53.1389 80.1111 51.8889 81.9445 49.2501C82.1389 48.9723 82.4167 48.7778 82.75 48.7778C83.2778 48.7778 83.6667 49.1667 83.6667 49.6945C83.6667 49.8889 83.6111 50.0278 83.5278 50.1667C81.6667 53.3889 77.9722 54.9723 74.3611 54.9723C68.1667 54.9723 63.7222 49.4167 63.7222 43.5001C63.7222 37.5556 68.1389 32.0278 74.3611 32.0278C80.5556 32.0278 85.0278 37.5278 85.0556 43.4445ZM83.0833 42.5834C82.6945 38.0278 79.1945 33.8612 74.3611 33.8612C69.5278 33.8612 66.1111 38.0278 65.6389 42.5834H83.0833Z" fill="white"/>
<path d="M107.417 32.4723C107.944 32.4723 108.333 32.9445 108.333 33.3889C108.333 33.9167 107.944 34.3056 107.417 34.3056H102.472V53.7223C102.472 54.1945 102.083 54.6389 101.556 54.6389C101.028 54.6389 100.639 54.1667 100.639 53.7223V34.3056H95.8889C95.3611 34.3056 94.9722 33.9167 94.9722 33.3889C94.9722 32.9167 95.3611 32.4723 95.8889 32.4723H100.639V25.3889C100.639 24.9167 101 24.4723 101.472 24.4167C102.056 24.3612 102.5 24.7778 102.5 25.3334V32.4723H107.417Z" fill="white"/>
<path d="M137.583 41.8612V53.6112C137.583 54.1389 137.111 54.5278 136.667 54.5278C136.139 54.5278 135.75 54.1389 135.75 53.6112V41.8612C135.75 37.8889 133.5 33.9445 129.083 33.9445C123.417 33.9445 120.972 38.8889 121.306 43.9723C121.306 44.1112 121.361 44.6945 121.361 44.7778V53.5834C121.361 54.0556 121 54.5 120.528 54.5556C119.944 54.6112 119.5 54.1945 119.5 53.6389V15C119.5 14.5278 119.889 14.0834 120.417 14.0834C120.944 14.0834 121.333 14.5556 121.333 15V36.8334C122.917 34 125.75 32.0834 129.056 32.0834C134.5 32.0834 137.583 36.8334 137.583 41.8612Z" fill="white"/>
<path d="M170.667 43.4445C170.667 43.9723 170.222 44.4167 169.667 44.4167H151.25C151.722 48.9723 155.139 53.1389 159.972 53.1389C163.278 53.1389 165.722 51.8889 167.556 49.2501C167.75 48.9723 168.028 48.7778 168.361 48.7778C168.889 48.7778 169.278 49.1667 169.278 49.6945C169.278 49.8889 169.222 50.0278 169.139 50.1667C167.278 53.3889 163.583 54.9723 159.972 54.9723C153.778 54.9723 149.333 49.4167 149.333 43.5001C149.333 37.5556 153.75 32.0278 159.972 32.0278C166.139 32.0278 170.611 37.5278 170.667 43.4445ZM168.667 42.5834C168.278 38.0278 164.778 33.8612 159.944 33.8612C155.139 33.8612 151.694 38.0278 151.222 42.5834H168.667Z" fill="white"/>
<path d="M193.278 33.3334C193.278 33.9167 192.944 34.2501 192.417 34.3334C187 35.139 184.556 39.5556 184.556 44.6945V53.5001C184.556 53.9723 184.194 54.4167 183.722 54.4723C183.139 54.5278 182.694 54.1112 182.694 53.5556V33.4723C182.694 33.0001 183.056 32.5556 183.528 32.5001C184.111 32.4445 184.556 32.8612 184.556 33.4167V37.5001C186.083 34.9167 189.111 32.4723 192.278 32.4723C192.75 32.4723 193.278 32.8056 193.278 33.3334Z" fill="white"/>
<path d="M223.583 43.4445C223.583 43.9723 223.139 44.4167 222.583 44.4167H204.167C204.639 48.9723 208.056 53.1389 212.889 53.1389C216.194 53.1389 218.639 51.8889 220.472 49.2501C220.667 48.9723 220.944 48.7778 221.278 48.7778C221.806 48.7778 222.194 49.1667 222.194 49.6945C222.194 49.8889 222.139 50.0278 222.056 50.1667C220.194 53.3889 216.5 54.9723 212.889 54.9723C206.694 54.9723 202.25 49.4167 202.25 43.5001C202.25 37.5556 206.667 32.0278 212.889 32.0278C219.083 32.0278 223.556 37.5278 223.583 43.4445ZM221.611 42.5834C221.222 38.0278 217.722 33.8612 212.889 33.8612C208.056 33.8612 204.639 38.0278 204.167 42.5834H221.611Z" fill="white"/>
<path d="M253.361 33.5556V39.9167V53.7223C253.361 54.2501 252.889 54.6389 252.444 54.6389C251.917 54.6389 251.528 54.2501 251.528 53.7223V49.8889C250 52.9167 247.306 55.1112 243.861 55.1112C238.389 55.1112 235.361 50.3612 235.361 45.3334V33.5278C235.361 33.0556 235.75 32.6112 236.278 32.6112C236.806 32.6112 237.194 33.0834 237.194 33.5278V45.3334C237.194 49.3056 239.444 53.2501 243.861 53.2501C250.056 53.2501 251.528 47.4445 251.528 41.0278V33.5001C251.528 32.9445 252.111 32.3889 252.778 32.6389C253.111 32.8056 253.361 33.1667 253.361 33.5556Z" fill="white"/>
<path d="M300 41.7778V53.5834C300 54.1111 299.528 54.5 299.083 54.5C298.556 54.5 298.167 54.1111 298.167 53.5834V41.7778C298.167 37.8056 295.917 33.9167 291.5 33.9167C285.944 33.9167 283.833 39.8612 283.833 44.4723V53.5834C283.833 54.1111 283.361 54.5 282.917 54.5C282.389 54.5 282 54.1111 282 53.5834V41.7778C282 37.8056 279.75 33.9167 275.333 33.9167C269.722 33.9167 267.417 38.3334 267.611 44.2223C267.611 44.3612 267.667 44.6112 267.611 44.6945V53.5556C267.611 54.0278 267.25 54.4723 266.778 54.5278C266.194 54.5834 265.75 54.1667 265.75 53.6112V33.4723C265.75 33 266.111 32.5556 266.583 32.5C267.167 32.4445 267.611 32.8612 267.611 33.4167V36.7778C269.194 33.9445 272.028 32.0834 275.333 32.0834C279.083 32.0834 282 34.4723 283.194 37.9445C284.722 34.5 287.694 32.0834 291.5 32.0834C296.917 32.0834 300 36.7778 300 41.7778Z" fill="white"/>
<path d="M0 38.4722L23.0556 52.1111V28V0.194458L0 38.4722Z" fill="#8C92B0"/>
<mask id="mask0_313_65" style="mask-type:luminance" maskUnits="userSpaceOnUse" x="0" y="0" width="24" height="53">
<path d="M22.5556 28V51.2344L0.688341 38.2985L22.5556 1.99365V28Z" fill="#63688C" stroke="white"/>
</mask>
<g mask="url(#mask0_313_65)">
<path d="M45.0573 38.5305L23.0558 51.5303L1.08063 38.5305L23.0557 28.5491L45.0573 38.5305Z" fill="#63688C" stroke="white"/>
</g>
<path d="M23.0556 0.194458V28V52.1111L46.1389 38.4722L23.0556 0.194458Z" fill="#63688C"/>
<mask id="mask1_313_65" style="mask-type:luminance" maskUnits="userSpaceOnUse" x="23" y="0" width="24" height="53">
<path d="M23.5556 28V1.9918L45.4502 38.2984L23.5556 51.2349V28Z" fill="#464A72" stroke="white"/>
</mask>
<g mask="url(#mask1_313_65)">
<path d="M45.0573 38.5305L23.0558 51.5303L1.08063 38.5305L23.0557 28.5491L45.0573 38.5305Z" fill="#464A72" stroke="white"/>
</g>
<path d="M22.5556 56.7577V73.7921L1.7635 44.4828L22.5556 56.7577Z" fill="#8C92B0" stroke="white"/>
<path d="M22.8016 56.0416L22.5556 56.1867V56.4723V75.3611V76.9285L23.4632 75.6506L46.5465 43.1506L45.8849 42.4304L22.8016 56.0416Z" fill="#63688C" stroke="white"/>
</g>
<defs>
<clipPath id="clip0_313_65">
<rect width="300" height="76" fill="white"/>
</clipPath>
</defs>
</svg>
