<?xml version="1.0" encoding="UTF-8"?>
<svg width="307px" height="64px" viewBox="0 0 307 64" version="1.1" xmlns="http://www.w3.org/2000/svg" xmlns:xlink="http://www.w3.org/1999/xlink">
    <!-- Generator: Sketch 61.2 (89653) - https://sketch.com -->
    <title>Bitcoin_logo</title>
    <desc>Created with Sketch.</desc>
    <g id="Filter" stroke="none" stroke-width="1" fill="none" fill-rule="evenodd">
        <g id="Bitcoin_logo" fill-rule="nonzero">
            <path d="M63.03256,39.74529 C58.75856,56.88829 41.39556,67.32129 24.25056,63.04629 C7.11256,58.77229 -3.32044,41.40829 0.95556,24.26629 C5.22756,7.12129 22.59056,-3.31271 39.73056,0.96129 C56.87456,5.23529 67.30656,22.60129 63.03256,39.74529 L63.03256,39.74529 Z" id="Path" fill="#F7931A"></path>
            <path d="M46.10256,27.44529 C46.73956,23.18729 43.49756,20.89829 39.06456,19.37129 L40.50256,13.60329 L36.99156,12.72829 L35.59156,18.34429 C34.66856,18.11429 33.72056,17.89729 32.77856,17.68229 L34.18856,12.02929 L30.67956,11.15429 L29.24056,16.92029 C28.47656,16.74629 27.72656,16.57429 26.99856,16.39329 L27.00256,16.37529 L22.16056,15.16629 L21.22656,18.91629 C21.22656,18.91629 23.83156,19.51329 23.77656,19.55029 C25.19856,19.90529 25.45556,20.84629 25.41256,21.59229 L23.77456,28.16329 C23.87256,28.18829 23.99956,28.22429 24.13956,28.28029 C24.02256,28.25129 23.89756,28.21929 23.76856,28.18829 L21.47256,37.39329 C21.29856,37.82529 20.85756,38.47329 19.86356,38.22729 C19.89856,38.27829 17.31156,37.59029 17.31156,37.59029 L15.56856,41.60929 L20.13756,42.74829 C20.98756,42.96129 21.82056,43.18429 22.64056,43.39429 L21.18756,49.22829 L24.69456,50.10329 L26.13356,44.33129 C27.09156,44.59129 28.02156,44.83129 28.93156,45.05729 L27.49756,50.80229 L31.00856,51.67729 L32.46156,45.85429 C38.44856,46.98729 42.95056,46.53029 44.84556,41.11529 C46.37256,36.75529 44.76956,34.24029 41.61956,32.60029 C43.91356,32.07129 45.64156,30.56229 46.10256,27.44529 L46.10256,27.44529 Z M38.08056,38.69429 C36.99556,43.05429 29.65456,40.69729 27.27456,40.10629 L29.20256,32.37729 C31.58256,32.97129 39.21456,34.14729 38.08056,38.69429 Z M39.16656,27.38229 C38.17656,31.34829 32.06656,29.33329 30.08456,28.83929 L31.83256,21.82929 C33.81456,22.32329 40.19756,23.24529 39.16656,27.38229 Z" id="Shape" fill="#FFFFFF"></path>
            <path d="M93.77256,19.36529 C96.36756,19.36529 98.60956,19.83029 100.49356,20.74329 C102.38656,21.66529 103.94856,22.90729 105.20156,24.46929 C106.43756,26.03929 107.35756,27.87429 107.95156,29.97729 C108.54156,32.08629 108.83756,34.35329 108.83756,36.78029 C108.83756,40.50829 108.15456,44.03029 106.77556,47.35029 C105.39656,50.67529 103.52556,53.55929 101.14556,56.01929 C98.76756,58.47629 95.95956,60.41329 92.72156,61.84429 C89.48856,63.27629 85.97356,63.99229 82.19956,63.99229 C81.71156,63.99229 80.85356,63.97829 79.64156,63.95329 C78.42956,63.92829 77.03656,63.80329 75.47656,63.59229 C73.90656,63.37329 72.24656,63.04929 70.49356,62.61529 C68.74156,62.18929 67.07756,61.59229 65.51056,60.83429 L79.52256,1.95829 L92.07256,0.01329 L87.05556,20.90629 C88.12956,20.42229 89.21156,20.04729 90.29156,19.77429 C91.37256,19.50529 92.53256,19.36529 93.77256,19.36529 L93.77256,19.36529 Z M83.24556,54.03629 C85.13556,54.03629 86.91656,53.57129 88.58956,52.65829 C90.26756,51.74429 91.71556,50.51029 92.92856,48.97329 C94.14156,47.42929 95.10156,45.69029 95.80156,43.74729 C96.50156,41.80429 96.85556,39.77729 96.85556,37.66829 C96.85556,35.07729 96.42256,33.05629 95.55956,31.59529 C94.69656,30.14029 93.09956,29.40829 90.78056,29.40829 C90.02056,29.40829 89.04156,29.55329 87.82756,29.81229 C86.60956,30.08729 85.51956,30.65829 84.54256,31.51729 L79.20056,53.70529 C79.52256,53.76229 79.80756,53.81629 80.05056,53.86729 C80.28856,53.92229 80.55156,53.96129 80.81356,53.98829 C81.09056,54.01929 81.40756,54.03529 81.79056,54.03529 C82.17356,54.03529 82.65256,54.03629 83.24556,54.03629 L83.24556,54.03629 Z" id="Shape" fill="#9C9C9C"></path>
            <path d="M121.85256,62.86529 L109.86556,62.86529 L119.98856,20.26829 L132.05756,20.26829 L121.85256,62.86529 Z M127.68556,15.07829 C126.01256,15.07829 124.49556,14.58029 123.14956,13.58229 C121.79256,12.59029 121.12056,11.06329 121.12056,9.00529 C121.12056,7.87329 121.35056,6.81129 121.80656,5.80929 C122.26956,4.80929 122.87456,3.94829 123.63256,3.21629 C124.38956,2.49029 125.26656,1.91029 126.26256,1.47329 C127.26456,1.04329 128.33056,0.82829 129.46656,0.82829 C131.13856,0.82829 132.64756,1.32629 133.99856,2.32429 C135.34456,3.32729 136.02156,4.85429 136.02156,6.90129 C136.02156,8.03729 135.79256,9.10329 135.33256,10.10329 C134.87556,11.10329 134.27056,11.96429 133.51256,12.69629 C132.76156,13.42329 131.87656,14.00129 130.88256,14.43429 C129.87956,14.87129 128.81756,15.07829 127.68556,15.07829 Z" id="Shape" fill="#9C9C9C"></path>
            <path d="M142.56256,9.65529 L155.11756,7.71029 L152.03456,20.26629 L165.48056,20.26629 L163.05256,30.14429 L149.68756,30.14429 L146.12756,45.04429 C145.79956,46.28629 145.61356,47.44629 145.56156,48.52429 C145.50256,49.60729 145.63956,50.53729 145.96356,51.32029 C146.28556,52.10529 146.86456,52.71029 147.70456,53.13829 C148.54056,53.57329 149.73756,53.79229 151.30756,53.79229 C152.60056,53.79229 153.86056,53.66929 155.07856,53.42529 C156.28956,53.18529 157.51656,52.85129 158.75856,52.41429 L159.65256,61.65029 C158.03256,62.24429 156.27856,62.75529 154.38856,63.18529 C152.49556,63.62129 150.25456,63.83129 147.66456,63.83129 C143.94056,63.83129 141.05356,63.27829 138.99656,62.17729 C136.94256,61.06829 135.49056,59.55329 134.62156,57.63529 C133.76456,55.72429 133.38156,53.52129 133.48856,51.03929 C133.59956,48.55129 133.97456,45.93629 134.62156,43.18229 L142.56256,9.65529 L142.56256,9.65529 Z" id="Path" fill="#9C9C9C"></path>
            <path d="M164.95256,45.85529 C164.95256,42.18629 165.54656,38.72629 166.73356,35.48729 C167.91856,32.24529 169.62556,29.41029 171.84056,26.97729 C174.04756,24.55629 176.73656,22.63829 179.90156,21.23029 C183.05156,19.83029 186.57856,19.12429 190.46556,19.12429 C192.89856,19.12429 195.07156,19.35429 196.98356,19.81529 C198.90356,20.28029 200.64056,20.88129 202.21156,21.63529 L198.07756,31.03529 C196.99756,30.59729 195.87656,30.21129 194.71756,29.86129 C193.55756,29.50429 192.14156,29.33229 190.46656,29.33229 C186.46556,29.33229 183.30256,30.71129 180.94856,33.46029 C178.60356,36.21129 177.42256,39.91429 177.42256,44.55929 C177.42256,47.31229 178.01656,49.53829 179.20856,51.24129 C180.39456,52.94429 182.58556,53.79129 185.76656,53.79129 C187.33656,53.79129 188.85156,53.62729 190.30256,53.30729 C191.76456,52.98329 193.05556,52.57529 194.19256,52.09329 L195.08756,61.72929 C193.57156,62.31729 191.89956,62.84829 190.06556,63.31329 C188.22756,63.76229 186.03956,63.99529 183.50256,63.99529 C180.15356,63.99529 177.31856,63.50529 174.99956,62.54029 C172.67956,61.56029 170.76256,60.25929 169.25256,58.61129 C167.73456,56.95929 166.64456,55.03029 165.97056,52.81629 C165.29656,50.60429 164.95256,48.28029 164.95256,45.85529 L164.95256,45.85529 Z" id="Path" fill="#9C9C9C"></path>
            <path d="M218.20256,63.99529 C215.34156,63.99529 212.85656,63.55929 210.74856,62.69629 C208.64656,61.83329 206.90556,60.62229 205.52856,59.05229 C204.14956,57.49029 203.11756,55.63929 202.41056,53.50629 C201.70356,51.37429 201.36356,49.01329 201.36356,46.42629 C201.36356,43.18129 201.88456,39.93729 202.93756,36.70229 C203.98556,33.46029 205.54056,30.54729 207.59856,27.95829 C209.64056,25.36529 212.15956,23.24529 215.12556,21.59229 C218.08856,19.95029 221.49656,19.12429 225.32456,19.12429 C228.13356,19.12429 230.60556,19.56129 232.74256,20.42429 C234.86956,21.28529 236.62156,22.50629 238.00656,24.06829 C239.37656,25.63829 240.41756,27.48129 241.11756,29.61729 C241.82256,31.74529 242.17056,34.11229 242.17056,36.70129 C242.17056,39.93629 241.65656,43.18029 240.63656,46.42529 C239.61556,49.65429 238.10056,52.57429 236.10056,55.16929 C234.10456,57.75829 231.60856,59.87729 228.61056,61.52329 C225.61656,63.16929 222.14456,63.99529 218.20256,63.99529 L218.20256,63.99529 Z M224.19356,29.33329 C222.41656,29.33329 220.84556,29.84929 219.50056,30.86829 C218.15056,31.89929 217.01656,33.19529 216.10256,34.75829 C215.17856,36.32829 214.49356,38.04029 214.03056,39.90129 C213.57156,41.76629 213.34656,43.52929 213.34656,45.20429 C213.34656,47.90729 213.78256,50.01229 214.63956,51.52729 C215.50856,53.03429 217.06956,53.79229 219.33856,53.79229 C221.12156,53.79229 222.68456,53.28029 224.03756,52.25029 C225.37956,51.22729 226.51456,49.93029 227.43556,48.36429 C228.35356,46.80229 229.04456,45.08529 229.50756,43.22129 C229.96056,41.36229 230.19156,39.58929 230.19156,37.91729 C230.19156,35.22129 229.75756,33.11129 228.89256,31.59829 C228.02856,30.09129 226.46056,29.33329 224.19356,29.33329 Z" id="Shape" fill="#9C9C9C"></path>
            <path d="M255.23256,62.86529 L243.23556,62.86529 L253.35856,20.26829 L265.43356,20.26829 L255.23256,62.86529 L255.23256,62.86529 Z M261.05656,15.07829 C259.38456,15.07829 257.86856,14.58029 256.52456,13.58229 C255.17456,12.59029 254.49656,11.06329 254.49656,9.00529 C254.49656,7.87329 254.72956,6.81129 255.18656,5.80929 C255.64356,4.80929 256.25256,3.94829 257.01056,3.21629 C257.76356,2.49029 258.64856,1.91029 259.64256,1.47329 C260.63856,1.04329 261.70456,0.82829 262.83656,0.82829 C264.51256,0.82829 266.02656,1.32629 267.37456,2.32429 C268.72356,3.32729 269.40456,4.85429 269.40456,6.90129 C269.40456,8.03729 269.16256,9.10329 268.70956,10.10329 C268.25656,11.10329 267.64756,11.96429 266.89256,12.69629 C266.13256,13.42329 265.25856,14.00129 264.26256,14.43429 C263.25856,14.87129 262.19456,15.07829 261.05656,15.07829 L261.05656,15.07829 Z" id="Shape" fill="#9C9C9C"></path>
            <path d="M274.07256,22.20529 C274.98256,21.93929 275.99856,21.61929 277.10356,21.27129 C278.21256,20.92329 279.45156,20.59929 280.83556,20.30729 C282.20456,20.00629 283.74956,19.76229 285.44856,19.57329 C287.14756,19.38029 289.08356,19.28629 291.23456,19.28629 C297.55656,19.28629 301.91456,21.12729 304.32056,24.79829 C306.72456,28.46929 307.14056,33.49329 305.58056,39.86129 L300.06656,62.86129 L288.00056,62.86129 L293.34456,40.34529 C293.67056,38.93929 293.92656,37.58029 294.11556,36.25229 C294.30656,34.93629 294.29556,33.77629 294.07256,32.77229 C293.85956,31.78029 293.35756,30.96829 292.57856,30.33929 C291.78756,29.72029 290.59256,29.40929 288.97156,29.40929 C287.40856,29.40929 285.81856,29.57729 284.19556,29.90129 L276.33856,62.86029 L264.26756,62.86029 L274.07256,22.20529 L274.07256,22.20529 Z" id="Path" fill="#9C9C9C"></path>
        </g>
    </g>
</svg>