<svg width="298" height="102" viewBox="0 0 298 102" fill="none" xmlns="http://www.w3.org/2000/svg">
<path fill-rule="evenodd" clip-rule="evenodd" d="M41.698 23.2818L33.8398 52.6757L27.6133 55.1246L25.3694 63.494L31.6969 61.3512L27.5123 78.7022L72.8276 78.8032L75.5827 67.6787H48.0255L51.598 54.3073L59.049 51.142L61.1918 42.9777L53.9459 45.4267L59.6612 23.5848L41.698 23.2818ZM50.3735 0.934833C78.0403 0.951717 100.465 23.3741 100.486 51.041C100.469 78.7102 78.0427 101.136 50.3735 101.153C22.7042 101.136 0.278117 78.7102 0.26123 51.041C0.362251 23.3828 22.7153 0.928711 50.3735 0.928711V0.934833Z" fill="white"/>
<path fill-rule="evenodd" clip-rule="evenodd" d="M136.856 32.2699C136.85 34.1201 135.351 35.6183 133.501 35.625C131.651 35.6183 130.153 34.1201 130.146 32.2699C130.153 30.4197 131.651 28.9215 133.501 28.9148C135.381 28.9821 136.856 30.4576 136.856 32.2699ZM264.867 32.3678C264.861 34.218 263.363 35.7162 261.512 35.7229C259.662 35.7162 258.164 34.218 258.157 32.3678C258.164 30.5177 259.662 29.0195 261.512 29.0127C263.363 29.0195 264.861 30.5177 264.867 32.3678ZM119.009 27.1025H123.436V74.2668H119.009V27.1025ZM156.31 43.7434L156.243 47.7689L149.937 47.8362V74.3066H145.51V47.8056H140.144V43.6423H145.51V32.2362H149.937V43.6423H156.31V43.7434ZM169.933 43.6087C174.295 42.7362 179.055 43.3025 182.68 45.9566C187.376 49.3117 189.255 55.5505 188.517 61.0485H162.681C163.079 63.9321 164.493 66.6811 166.905 68.3954C171.668 71.9525 179.318 71.0127 182.671 66.0474L183.274 65.4444C184.749 65.6464 186.157 66.0474 187.568 66.3168C186.16 69.5372 183.476 72.1546 180.222 73.5627C176.261 75.2789 171.791 75.3995 167.744 73.8995C163.988 72.4913 160.902 69.4729 159.356 65.7138C157.544 61.1219 157.679 55.9178 159.754 51.4913C161.634 47.3985 165.525 44.4505 169.856 43.575L169.933 43.6087ZM165.84 50.6495C164.095 52.327 163.085 54.675 162.687 57.0229H184.115C183.809 53.1352 181.164 49.376 177.338 48.1668C173.45 46.826 168.751 47.7689 165.864 50.6158L165.84 50.6495ZM196.238 48.3046C202.008 41.9311 213.075 41.4627 219.319 47.3648L216.166 50.5178C211.804 46.6913 204.76 46.6913 200.401 50.4505C195.197 54.877 195.503 64.0729 200.937 68.1627C205.299 71.5852 212.006 71.3832 216.166 67.627L219.319 70.7127C213.411 76.0791 203.352 76.2842 197.447 70.9821C191.141 65.3495 190.605 54.5434 196.241 48.3046H196.238ZM275.937 48.6107C277.614 45.0536 281.906 43.177 285.999 43.177C287.879 43.177 289.755 43.4832 291.295 44.2485C294.381 45.5893 296.126 48.2066 296.998 51.228C297.534 52.9729 297.733 54.8495 297.733 56.6617L297.665 74.374H293.303V56.9311C293.303 54.3138 292.767 51.4974 290.955 49.5842C289.143 47.7719 286.327 47.3036 283.914 47.8393C281.098 48.2372 278.413 49.9209 277.073 52.5352C276.267 54.1454 275.931 55.8903 275.931 57.7025V74.4076H271.504V43.878L275.931 43.9454L275.937 48.6107ZM233.869 43.5413C238.232 42.7362 242.931 43.4066 246.616 45.8893C250.106 48.1025 252.454 51.8587 253.125 55.8872C253.798 60.1117 253.125 64.6117 250.676 68.1321C247.859 72.3566 242.759 74.9097 237.659 74.8423C233.364 75.0444 229.005 73.4342 225.987 70.3485C220.887 65.4505 220.079 57.1301 223.369 51.026C225.451 47.0678 229.474 44.3158 233.839 43.5107L233.869 43.5413ZM234.267 47.9678C230.71 48.7729 227.692 51.3903 226.486 54.8097C224.741 59.5729 226.216 65.478 230.444 68.3617C235.409 71.9831 243.191 71.0464 246.815 66.0138C249.441 62.2728 249.752 57.3772 247.62 53.3342C245.172 48.6383 239.233 46.624 234.274 47.9678H234.267ZM131.288 74.3066V43.8474L135.512 43.7127L135.58 74.3066H131.288ZM263.655 74.3066H259.357L259.425 43.7127H263.649L263.655 74.3066Z" fill="white"/>
</svg>
