<?xml version="1.0" encoding="UTF-8"?>
<svg width="300px" height="87px" viewBox="0 0 300 87" version="1.1" xmlns="http://www.w3.org/2000/svg" xmlns:xlink="http://www.w3.org/1999/xlink">
    <!-- Generator: Sketch 61.2 (89653) - https://sketch.com -->
    <title>Ripple_logo</title>
    <desc>Created with Sketch.</desc>
    <defs>
        <linearGradient x1="31.4699072%" y1="15.3472608%" x2="95.368454%" y2="84.6528771%" id="linearGradient-1">
            <stop stop-color="#00AAE4" offset="0%"></stop>
            <stop stop-color="#006097" offset="100%"></stop>
        </linearGradient>
    </defs>
    <g id="Filter" stroke="none" stroke-width="1" fill="none" fill-rule="evenodd">
        <g id="Ripple_logo" fill-rule="nonzero">
            <path d="M109.259622,32.5572769 C108.467746,32.2932494 106.796053,32.1171625 105.124119,32.1171625 C100.108387,32.1171625 94.7408238,36.1801373 94.7408238,41.1956636 L94.7408238,65.1143478 L83.3020366,65.1143478 L83.3020366,22.4381121 L94.3010183,22.4381121 L94.3010183,26.7496682 C96.8527346,23.5819565 101.516121,21.5580549 106.707872,21.5580549 C108.006037,21.5674039 109.301154,21.6851355 110.579725,21.9100229 L109.259622,32.5572769 Z" id="Path" fill="#9C9C9C"></path>
            <path d="M122.193879,0 C126.329554,0 129.673284,3.16771167 129.673284,7.30342105 C129.673284,11.4391304 126.329691,14.6066018 122.193879,14.6066018 C118.058066,14.6066018 114.714474,11.4391304 114.714474,7.30342105 C114.714474,3.16771167 118.058307,0 122.193879,0 Z M127.913307,65.1144165 L116.474416,65.1144165 L116.474416,22.4381121 L127.913307,22.4381121 L127.913307,65.1144165 L127.913307,65.1144165 Z" id="Shape" fill="#9C9C9C"></path>
            <path d="M161.703535,21.5559611 C157.16368,21.4984926 152.74564,23.0245118 149.20905,25.8716362 L149.20905,22.4377346 L138.207597,22.4377346 L138.207597,86.2303661 L149.647551,86.2303661 L149.647551,62.123238 C152.90096,64.6933566 156.942024,66.061261 161.087609,65.9957094 C167.423478,65.9957094 173.493398,63.1776316 177.277208,58.778032 C180.622414,54.905595 182.642643,49.6288215 182.642643,43.8201487 C182.642643,31.2370709 173.316144,21.5559611 161.703535,21.5559611 Z M160.313169,55.6101144 C153.20746,55.6101144 148.537208,50.7065561 148.537208,43.85746 C148.537208,37.0083638 153.20746,32.1048398 160.313169,32.1048398 C166.378387,32.1048398 171.295984,37.3676087 171.295984,43.85746 C171.295984,50.3473112 166.378421,55.6101144 160.313169,55.6101144 L160.313169,55.6101144 Z" id="Shape" fill="#9C9C9C"></path>
            <polygon id="Path" fill="#9C9C9C" points="252.069954 65.1143478 240.630584 65.1143478 240.630584 2.63965675 252.069954 2.63965675 252.069954 65.1144851"></polygon>
            <path d="M298.705778,58.3387757 C294.570103,63.2663616 287.794497,65.9941648 281.195252,65.9941648 C268.436396,65.9941648 258.84508,57.1951716 258.84508,43.8202517 C258.84508,31.9412128 266.940584,21.5579863 279.611499,21.5579863 C291.402597,21.5579863 299.762271,31.5010984 299.762271,43.380103 C299.768574,44.4710178 299.680139,45.5604369 299.49762,46.6359954 L269.932243,46.6359954 C270.548204,52.6192449 275.387883,56.7549886 281.459519,56.7549886 C286.298684,56.7549886 290.170572,54.0271854 292.194474,51.8274027 L298.705778,58.3387757 Z M288.058764,38.2767391 C287.70659,34.4929977 284.275263,30.7973341 279.611396,30.7973341 C274.859691,30.7973341 270.988249,34.4051945 270.460366,38.2767391 L288.058764,38.2767391 Z" id="Shape" fill="#9C9C9C"></path>
            <path d="M212.915767,21.5559611 C208.375981,21.498532 203.958019,23.0245494 200.421487,25.8716362 L200.421487,22.4377346 L189.419863,22.4377346 L189.419863,86.2303661 L200.859886,86.2303661 L200.859886,62.123238 C204.113282,64.6933541 208.154334,66.0612587 212.299908,65.9957094 C218.635812,65.9957094 224.705698,63.1776316 228.489508,58.778032 C231.834748,54.905595 233.854943,49.6288215 233.854943,43.8201487 C233.854943,31.2370709 224.52841,21.5559611 212.915767,21.5559611 Z M211.5254,55.6101144 C204.419725,55.6101144 199.749474,50.7065561 199.749474,43.85746 C199.749474,37.0083638 204.419863,32.1047712 211.5254,32.1047712 C217.590618,32.1047712 222.508215,37.36754 222.508215,43.8573913 C222.508215,50.3472426 217.590686,55.6101144 211.5254,55.6101144 Z" id="Shape" fill="#9C9C9C"></path>
            <path d="M59.720286,49.5662471 C57.1375744,48.075 54.229119,47.6427803 51.3482265,47.5421739 C48.931167,47.4577689 45.3250229,45.9088902 45.3250229,41.5119336 C45.3250229,38.2359268 47.9807094,35.5993936 51.3494622,35.481762 C54.2301144,35.3811556 57.1382952,34.9483867 59.720286,33.4576545 C66.1323763,29.7556657 68.9609148,21.9842605 66.4285268,15.0267729 C63.8961388,8.06928536 56.7339167,3.93431956 49.4424008,5.22017262 C42.1508849,6.50602569 36.8351123,12.841476 36.8353661,20.2455034 C36.8353661,23.2014645 37.8867048,25.9216819 39.2281922,28.4446339 C40.3564531,30.5666018 40.9272769,34.5050114 37.0576545,36.7390503 C34.1790961,38.4009954 30.5866133,37.3486613 28.7922082,34.476865 C27.2764874,32.0512586 25.446762,29.7785355 22.8850572,28.2992677 C16.4730748,24.5972833 8.32868266,26.0333432 3.56952151,31.7050795 C-1.18963963,37.3768158 -1.18963963,45.6468455 3.56952151,51.3185818 C8.32868266,56.9903181 16.4730748,58.426378 22.8850572,54.7243936 C25.4460412,53.2456751 27.2759382,50.9744279 28.7906979,48.5502975 C30.0345652,46.5596911 33.1411442,44.0223227 37.0575172,46.2851259 C39.9316819,47.9457666 40.8202174,51.5841762 39.2268535,54.5810526 C37.8855721,57.103627 36.8355721,59.8232609 36.8355721,62.7787071 C36.8355836,70.1825508 42.1513941,76.5176789 49.4427564,77.8033448 C56.7341188,79.0890107 63.8960903,74.9540557 66.4283685,67.9967236 C68.9606467,61.0393916 66.1321884,53.268194 59.720286,49.5662471 L59.720286,49.5662471 Z" id="Path" fill="url(#linearGradient-1)"></path>
        </g>
    </g>
</svg>