<svg width="57" height="40" viewBox="0 0 57 40" fill="none" xmlns="http://www.w3.org/2000/svg">
<g clip-path="url(#clip0_10_3510)">
<path d="M11.276 16.75C6.81511 26 3.22163 33.5 3.22163 33.625C3.22163 33.75 5.32815 33.75 16.3564 33.75H29.4912V26.25V18.75H24.5347H19.5782L18.5868 20.75L17.5955 22.875H21.3129H25.0303V25.75V28.625H17.9673H11.0282L11.1521 28.125C11.276 27.875 13.8782 22.5 16.976 16.125L22.676 4.5H23.7912H24.9064V9.5V14.5H27.2608H29.3673V7.25V0H24.2868H19.2064L11.276 16.75ZM30.6064 16.875V33.75H32.8368H35.0673V28.375V23H39.4042H43.7412L46.3434 28.25C47.7064 31.125 48.9455 33.625 48.9455 33.625C48.9455 33.625 49.5651 33.75 51.4238 33.75C52.7868 33.75 53.7782 33.75 53.7782 33.75C53.7782 33.75 50.1847 26.125 45.7238 16.875L37.6695 0H34.076H30.4825V16.875H30.6064ZM38.4129 11.875C40.1477 15.5 41.6347 18.5 41.6347 18.5C41.6347 18.5 40.1477 18.5 38.289 18.5H34.9434V11.875C34.9434 8.125 34.9434 5.125 34.9434 5.25C35.1912 5.125 36.6782 8.25 38.4129 11.875ZM2.35424 35C2.35424 35 1.73467 36.125 1.11511 37.5L-0.124023 40H14.126C21.9325 40 34.8195 40 42.626 40H56.9999L55.7608 37.5L54.5216 35H28.4999C7.6825 34.875 2.47815 34.875 2.35424 35Z" fill="white" fill-opacity="0.8"/>
</g>
<defs>
<clipPath id="clip0_10_3510">
<rect width="57" height="40" fill="white"/>
</clipPath>
</defs>
</svg>
