<svg width="35" height="40" viewBox="0 0 35 40" fill="none" xmlns="http://www.w3.org/2000/svg">
<g clip-path="url(#clip0_10_3512)">
<path d="M5.485 37.0962C5.41 38.855 4.265 40 2.73375 40C1.93125 40 1.24125 39.6812 0.69625 39.0513C0.2425 38.5287 0 37.8512 0 37.0887C0 36.3175 0.2875 35.61 0.84125 35.0487C1.36375 34.5112 2.00875 34.2463 2.79625 34.2463C3.89375 34.2463 4.7425 34.8 5.16 35.7562H4.1975C3.84125 35.29 3.34125 35.0487 2.735 35.0487C2.2275 35.0487 1.7575 35.2513 1.40125 35.6237C1.0225 36.02 0.81125 36.5662 0.81125 37.095C0.81125 37.6787 1.0075 38.2087 1.3575 38.5812C1.72875 38.9775 2.23625 39.2038 2.73625 39.2038C3.54625 39.2038 4.18375 38.7588 4.5925 37.8725H2.1525V37.0938H5.485V37.0962ZM6.3225 39.8913H5.4975L7.60375 34.3563H8.36125L10.4663 39.8913H9.61125L9.02125 38.28H6.93L6.3225 39.8913ZM7.9825 35.3988L7.20875 37.5013H8.73875L7.9825 35.3988ZM10.7613 39.8913V34.3563H11.92L13.4812 38.6387L15.0425 34.3563H16.1863V39.8913H15.4513L15.5037 35.0875L13.7537 39.8913H13.2L11.4575 35.0875L11.51 39.8913H10.7613ZM19.615 40C18.8188 40 18.145 39.6963 17.615 39.12C17.1075 38.5675 16.85 37.8825 16.85 37.065C16.85 36.3013 17.13 35.6 17.6675 35.0638C18.1975 34.5262 18.865 34.2463 19.63 34.2463C20.8875 34.2463 21.9625 35.095 22.3113 36.4575H20.8875C20.6 35.9125 20.1675 35.6237 19.6375 35.6237C18.835 35.6237 18.2062 36.2612 18.2062 37.0725C18.2062 37.9525 18.8738 38.6287 19.6162 38.6287C20.1238 38.6287 20.5713 38.3488 20.8587 37.8338H22.29C21.9325 39.1825 20.91 40 19.615 40ZM23.62 39.8913H22.1813L24.25 34.3563H25.3263L27.395 39.8913H25.94L25.6737 39.0887H23.8937L23.62 39.8913ZM24.7863 36.17L24.2475 37.945H25.3162L24.7863 36.17ZM27.4963 39.8913V34.3563H29.285C29.8525 34.3563 30.285 34.395 30.6487 34.66C31.1262 35.0025 31.3762 35.525 31.3762 36.2087C31.3762 37.1037 30.9212 37.7738 30.1562 37.9925L31.4738 39.8925H29.845L28.815 38.1087V39.8925H27.4963V39.8913ZM29.0725 36.9088C29.7237 36.9088 30.0413 36.7375 30.0413 36.2388C30.0413 35.7787 29.7613 35.5938 29.1788 35.5938H28.815V36.9088H29.0725ZM32.0713 39.8913V34.3563H34.9963V35.5788H33.3913V36.4738H34.9963V37.7038H33.3913V38.6688H34.9963V39.8913C34.995 39.8913 32.0713 39.8913 32.0713 39.8913ZM34.0412 19.1513C33.8975 19.0675 33.7375 19.01 33.5662 18.9862C33.5262 18.98 33.4863 18.9775 33.445 18.9737C33.4225 18.9725 33.4025 18.9675 33.38 18.9675H33.3188C33.2638 18.9662 33.21 18.9625 33.1575 18.9675H22.625C21.88 18.9675 21.275 19.5888 21.275 20.3538C21.275 21.1188 21.88 21.74 22.625 21.74H26.7175C26.8525 21.7413 26.9613 21.8537 26.9613 21.9937C26.9613 22.0737 26.92 22.14 26.8625 22.1863C24.6187 23.4175 21.7325 24.1637 18.575 24.1637C17.8062 24.1637 17.0562 24.1175 16.3237 24.0337V27.1825C16.9613 27.23 17.6075 27.2575 18.2638 27.2575C22.6588 27.2575 26.6562 26.1525 29.6525 24.35L29.6537 24.355C29.6912 24.335 29.7325 24.3237 29.7775 24.3237C29.9237 24.3237 30.0438 24.4462 30.0438 24.5975C30.0438 24.625 30.04 24.6513 30.0312 24.6775L29.4062 26.42C29.0787 27.3363 29.5338 28.3537 30.425 28.6912C30.6213 28.7662 30.8225 28.8013 31.02 28.8013C31.72 28.8013 32.3787 28.3587 32.6338 27.6437L34.8925 21.3425C35.2012 20.4837 34.8187 19.5475 34.0412 19.1513ZM18.575 7.25375C21.7575 7.25375 24.67 8.0075 26.9225 9.25625C26.9225 9.25625 28.3525 10.3138 29.0325 9.29875C29.8137 8.13375 28.255 7.40875 28.255 7.40875C25.4613 6.05875 22.0063 5.26 18.2663 5.26125C17.61 5.26125 16.9625 5.2875 16.3263 5.33625V7.385C17.0562 7.3 17.8075 7.25375 18.575 7.25375ZM2.40125 0C1.0875 0 0.02125 1.095 0.02125 2.445V29.1325C0.02125 30.4837 1.0875 31.5775 2.40125 31.5775H16.3237V27.1813C7.94625 26.5525 1.44125 21.9025 1.44125 16.2575C1.44125 10.6125 7.9475 5.9625 16.3237 5.33375V0H2.40125ZM5.65625 15.7088C5.65625 19.875 10.2625 23.335 16.3237 24.0337V7.385C10.2638 8.0825 5.65625 11.5425 5.65625 15.7088Z" fill="white" fill-opacity="0.8"/>
</g>
<defs>
<clipPath id="clip0_10_3512">
<rect width="35" height="40" fill="white"/>
</clipPath>
</defs>
</svg>
