<?xml version="1.0" encoding="utf-8"?>
<!-- Generator: Adobe Illustrator 24.2.1, SVG Export Plug-In . SVG Version: 6.00 Build 0)  -->
<svg version="1.1" id="Слой_1" xmlns="http://www.w3.org/2000/svg" xmlns:xlink="http://www.w3.org/1999/xlink" x="0px" y="0px"
	 viewBox="0 0 119.704 32.459" style="enable-background:new 0 0 119.704 32.459;" xml:space="preserve">
<style type="text/css">
	.st0{fill:#FFFFFF;}
	.st1{enable-background:new    ;}
</style>
<g>
	<g>
		<path class="st0" d="M88.446,13.908c1.051,1.104,1.524,2.68,1.524,4.835v8.356h-3.784v-7.673c0-1.156-0.315-1.997-0.788-2.575
			c-0.473-0.578-1.156-0.841-2.05-0.841c-0.998,0-1.787,0.315-2.365,0.999c-0.578,0.683-0.893,1.629-0.893,2.943v7.2h-3.889V7.076
			h3.941v7.042c0.526-0.578,1.156-0.999,1.892-1.261c0.736-0.315,1.524-0.473,2.417-0.473
			C86.081,12.278,87.448,12.804,88.446,13.908z"/>
		<path class="st0" d="M64.009,20.95H53.446c0.21,0.946,0.631,1.629,1.366,2.207c0.683,0.526,1.577,0.788,2.628,0.788
			c0.736,0,1.366-0.105,1.944-0.368c0.578-0.21,1.104-0.578,1.577-1.104l2.155,2.47c-1.314,1.577-3.258,2.417-5.781,2.417
			c-1.577,0-2.943-0.315-4.204-0.999c-1.209-0.631-2.155-1.577-2.785-2.733c-0.683-1.156-0.999-2.47-0.999-3.941
			s0.315-2.785,0.999-3.941c0.631-1.156,1.524-2.102,2.68-2.733c1.156-0.631,2.417-0.999,3.784-0.999s2.628,0.315,3.731,0.946
			c1.104,0.631,1.997,1.524,2.628,2.68c0.631,1.156,0.946,2.523,0.946,4.099C64.062,19.846,64.062,20.214,64.009,20.95z
			 M54.55,16.167c-0.631,0.578-0.999,1.314-1.156,2.26h6.884c-0.158-0.946-0.526-1.682-1.156-2.26
			c-0.631-0.578-1.366-0.841-2.26-0.841C55.916,15.326,55.128,15.589,54.55,16.167z"/>
		<path class="st0" d="M105.946,20.95H95.383c0.21,0.946,0.631,1.629,1.366,2.207c0.736,0.526,1.577,0.788,2.628,0.788
			c0.736,0,1.366-0.105,1.944-0.368c0.578-0.21,1.104-0.578,1.577-1.104l2.155,2.47c-1.314,1.577-3.258,2.417-5.781,2.417
			c-1.577,0-2.943-0.315-4.204-0.999c-1.209-0.631-2.155-1.577-2.785-2.733c-0.683-1.156-0.998-2.47-0.998-3.941
			s0.315-2.785,0.998-3.941c0.631-1.156,1.524-2.102,2.68-2.733c1.156-0.631,2.417-0.999,3.784-0.999
			c1.366,0,2.628,0.315,3.731,0.946c1.104,0.631,1.997,1.524,2.628,2.68c0.631,1.156,0.946,2.523,0.946,4.099
			C105.999,19.846,105.999,20.214,105.946,20.95z M96.487,16.167c-0.631,0.578-0.999,1.314-1.156,2.26h6.884
			c-0.158-0.946-0.526-1.682-1.156-2.26c-0.631-0.578-1.366-0.841-2.26-0.841C97.853,15.326,97.065,15.589,96.487,16.167z"/>
		<path class="st0" d="M74.625,26.73c-0.631,0.368-2.155,0.631-2.838,0.631c-1.787,0-2.838-0.42-3.784-1.314
			c-0.946-0.893-1.471-2.207-1.471-3.941v-6.044h-2.628v-3.258h2.628V9.546l3.679-0.473v3.731h3.941v3.258H70.21v5.991
			c0,0.631,0.105,1.366,0.473,1.629c0.998,0.683,2.523,0.315,2.943-0.158L74.625,26.73z"/>
		<path class="st0" d="M49.137,26.73c-0.631,0.368-2.155,0.631-2.838,0.631c-1.787,0-2.838-0.42-3.784-1.314
			c-0.946-0.893-1.471-2.207-1.471-3.941v-6.044h-2.628v-3.258h2.628V9.546l3.679-0.473v3.731h3.941v3.258h-3.941v5.991
			c0,0.631,0.105,1.366,0.473,1.629c0.999,0.683,2.523,0.315,2.943-0.158L49.137,26.73z"/>
		<path class="st0" d="M113.829,12.541c1.524-0.42,4.204,0.368,4.94,1.419l-1.524,3.048c-0.42-0.315-0.736-0.683-1.787-0.893
			c-1.209-0.21-2.26-0.053-2.996,0.631c-0.683,0.683-1.209,1.629-1.261,3.521v6.779h-3.679V12.646h3.363l0.21,1.892
			C111.622,13.855,112.358,12.909,113.829,12.541z"/>
		<g>
			<path class="st0" d="M18.131,15.169v2.575h-3.889v-2.575c-4.099,0.158-7.2,0.893-7.2,1.734c0,0.999,4.099,1.787,9.092,1.787
				s9.092-0.788,9.092-1.787C25.278,16.062,22.23,15.326,18.131,15.169z"/>
			<path class="st0" d="M26.381,4.08H5.938L0,16.64l16.029,15.818L32.32,16.745L26.381,4.08z M18.131,19.268v6.937h-3.889v-6.937
				c-4.625-0.21-8.093-1.104-8.093-2.155s3.468-1.997,8.093-2.155v-3.416H8.514V7.811h15.293v3.731h-5.676v3.416
				c4.625,0.21,8.093,1.104,8.093,2.155S22.755,19.058,18.131,19.268z"/>
		</g>
	</g>
	<g class="st1">
		<path class="st0" d="M92.535,5.479h2.777v1.242h-4.076v-6.59h4.029v1.243h-2.73v1.403h2.495v1.224h-2.495V5.479z"/>
		<path class="st0" d="M100.125,6.722l-1.327-2.288h-0.988v2.288H96.51v-6.59h2.636c0.612,0,1.13,0.217,1.553,0.64
			c0.424,0.423,0.64,0.941,0.64,1.544c0,0.819-0.508,1.572-1.271,1.92l1.459,2.485H100.125z M97.809,1.346v1.949h1.336
			c0.49,0,0.895-0.442,0.895-0.979c0-0.536-0.405-0.969-0.895-0.969H97.809z"/>
		<path class="st0" d="M103.168,5.865c-0.65-0.659-0.97-1.469-0.97-2.438c0-0.97,0.32-1.789,0.97-2.438
			C103.817,0.329,104.636,0,105.625,0c1.196,0,2.269,0.603,2.834,1.553l-1.12,0.65c-0.329-0.593-0.96-0.941-1.714-0.941
			c-0.64,0-1.158,0.198-1.553,0.603c-0.386,0.404-0.584,0.922-0.584,1.563c0,0.631,0.198,1.149,0.584,1.553
			c0.395,0.405,0.913,0.603,1.553,0.603c0.753,0,1.403-0.358,1.714-0.932l1.12,0.65c-0.565,0.951-1.629,1.553-2.834,1.553
			C104.636,6.853,103.817,6.524,103.168,5.865z"/>
		<path class="st0" d="M109.167,6.722V5.752l2.25-2.316c0.499-0.527,0.753-0.969,0.753-1.318c0-0.518-0.358-0.857-0.857-0.857
			s-0.866,0.254-1.101,0.772l-1.092-0.64C109.534,0.489,110.363,0,111.295,0c0.593,0,1.111,0.188,1.535,0.565
			c0.424,0.367,0.64,0.876,0.64,1.506c0,0.687-0.358,1.384-1.083,2.109l-1.29,1.29h2.476v1.252H109.167z"/>
		<path class="st0" d="M115.128,5.921c-0.461-0.631-0.697-1.459-0.697-2.495s0.236-1.864,0.697-2.485
			C115.599,0.31,116.249,0,117.068,0c0.828,0,1.478,0.31,1.939,0.941c0.461,0.621,0.697,1.45,0.697,2.485s-0.236,1.864-0.697,2.495
			c-0.461,0.621-1.111,0.932-1.939,0.932C116.249,6.853,115.599,6.542,115.128,5.921z M117.068,1.261
			c-0.876,0-1.337,0.762-1.337,2.165c0,1.403,0.461,2.155,1.337,2.155s1.346-0.762,1.346-2.155
			C118.414,2.024,117.943,1.261,117.068,1.261z"/>
	</g>
</g>
</svg>
